<svg xmlns="http://www.w3.org/2000/svg" version="1.1" xmlns:xlink="http://www.w3.org/1999/xlink" width="512" height="512" x="0" y="0" viewBox="0 0 859 859.312" style="enable-background:new 0 0 512 512" xml:space="preserve" class=""><g transform="matrix(1,0,0,1,110,25)"><path d="M621.504 805.688H35.82c-1.175 0-2.355-.055-3.52-.141-22.253-2.05-38.616-21.676-36.6-43.785l48.835-537.07c1.895-20.883 19.13-36.633 40.102-36.633h488.05c20.938.023 38.168 15.773 40.07 36.632l48.829 537.07c.105 1.145.156 2.387.156 3.622.012 22.199-18.027 40.289-40.238 40.304zM84.637 214.91c-6.985 0-12.727 5.246-13.356 12.207L22.45 764.203c-.68 7.367 4.785 13.91 12.156 14.578l1.215.055h585.668c7.399-.016 13.403-6.031 13.403-13.441l-48.88-538.262c-.628-6.961-6.37-12.207-13.35-12.223zm136.61 67.172c-.02-7.406-6.067-13.45-13.458-13.465l.063-26.851c22.125.05 40.183 18.109 40.246 40.238zm0 0" fill="#003445" opacity="1" data-original="#000000" class=""></path><path d="M449.5 322.324c-22.21 0-40.281-18.066-40.281-40.281 0-22.211 18.066-40.277 40.281-40.277 22.21 0 40.277 18.066 40.277 40.277 0 22.215-18.066 40.281-40.277 40.281zm0-53.707c-7.406 0-13.43 6.02-13.43 13.426 0 7.414 6.024 13.43 13.43 13.43 7.41 0 13.426-6.016 13.426-13.43 0-7.406-6.016-13.426-13.426-13.426zM207.816 322.324c-22.207 0-40.277-18.066-40.277-40.281 0-22.211 18.066-40.277 40.277-40.277v26.851c-7.398 0-13.425 6.016-13.425 13.426 0 7.406 6.027 13.43 13.425 13.43 7.403 0 13.43-6.024 13.43-13.43h26.852c0 22.215-18.067 40.281-40.282 40.281zm0 0" fill="#003445" opacity="1" data-original="#000000" class=""></path><path d="M221.246 282.082c-.02-7.406-6.066-13.45-13.457-13.465l.063-26.851c22.125.05 40.183 18.109 40.246 40.238zm0 0" fill="#003445" opacity="1" data-original="#000000" class=""></path><path d="M462.926 255.191H436.07v-120.84c0-59.226-48.183-107.413-107.41-107.413-59.226 0-107.414 48.187-107.414 107.414v120.84h-26.855v-120.84c0-74.04 60.23-134.27 134.27-134.27 74.03 0 134.265 60.23 134.265 134.27zm0 0" fill="#003445" opacity="1" data-original="#000000" class=""></path></g></svg>