<svg xmlns="http://www.w3.org/2000/svg" version="1.1" xmlns:xlink="http://www.w3.org/1999/xlink" width="512" height="512" x="0" y="0" viewBox="0 0 64 64" style="enable-background:new 0 0 512 512" xml:space="preserve" class=""><g><path d="M11.347 32.449a1 1 0 0 1-.928-.626c-2.153-5.33-1.75-10.528 1.134-14.638 2.337-3.33 6.047-5.504 9.923-5.814 3.787-.306 7.652 1.151 11.178 4.205a1 1 0 0 1-1.31 1.512c-2.169-1.879-5.61-4.041-9.708-3.724-3.29.264-6.447 2.122-8.446 4.97-2.481 3.536-2.807 8.06-.917 12.739a1 1 0 0 1-.926 1.376z" fill="#003445" opacity="1" data-original="#000000" class=""></path><path d="M32 52.668c-.235 0-.471-.083-.662-.25-3.559-3.143-7.234-5.989-10.676-8.598-2.878-2.181-6.137-4.903-8.479-8.562-.648-1.013-1.224-2.134-1.76-3.427a1.001 1.001 0 0 1 1.848-.766c.49 1.183 1.013 2.202 1.597 3.114 2.172 3.394 5.264 5.972 8.002 8.046 3.473 2.632 7.185 5.506 10.792 8.692A1 1 0 0 1 32 52.668z" fill="#003445" opacity="1" data-original="#000000" class=""></path><path d="M32 52.668a1.001 1.001 0 0 1-.663-1.75c3.608-3.186 7.319-6.061 10.792-8.692 2.738-2.074 5.83-4.652 8.002-8.046.584-.913 1.106-1.931 1.597-3.114a1 1 0 0 1 1.848.766c-.536 1.293-1.112 2.414-1.76 3.427-2.342 3.659-5.601 6.381-8.479 8.562-3.442 2.608-7.118 5.455-10.676 8.598a.996.996 0 0 1-.661.249z" fill="#003445" opacity="1" data-original="#000000" class=""></path><path d="M52.653 32.449a1 1 0 0 1-.927-1.375c1.891-4.68 1.565-9.204-.917-12.739-2-2.849-5.157-4.707-8.447-4.97-4.098-.323-7.539 1.844-9.708 3.724a1 1 0 0 1-1.31-1.512c3.526-3.054 7.397-4.512 11.177-4.205 3.876.31 7.586 2.484 9.924 5.814 2.885 4.11 3.288 9.308 1.134 14.638a.996.996 0 0 1-.926.625z" fill="#003445" opacity="1" data-original="#000000" class=""></path></g></svg>