<svg width="96" height="96" viewBox="0 0 96 96" fill="none" xmlns="http://www.w3.org/2000/svg">
<g clip-path="url(#clip0_13_4)">
<path d="M70.726 75.272C70.3616 75.1794 69.9754 75.2352 69.6521 75.4271C69.3288 75.6191 69.095 75.9315 69.0019 76.2958C68.8084 77.0546 68.1989 77.6467 68.9577 77.8402C69.8119 78.0579 71.6946 78.4775 72.4716 78.7355C73.9114 78.7355 74.3431 77.3373 73.7314 76.164C72.7421 75.8263 71.7394 75.5287 70.726 75.272Z" fill="#DC8995"/>
<path d="M55.3408 30.6958C50.6955 28.334 45.4387 27.0022 39.8705 27.0022C37.2274 27.0009 34.593 27.3053 32.0199 27.9093L12.5769 40.6005C8.8057 45.5913 6.37064 51.6483 5.80664 58.2397L8.58558 75.0011C10.3041 78.8848 12.7299 82.4151 15.7393 85.4118L15.7395 85.4111L15.7396 85.4115C20.7453 89.5355 28.6365 93.4912 37.98 93.4912C59.8543 93.4912 72.1695 75.8497 72.1695 61.1921L73.1861 53.4789L55.3408 30.6958Z" fill="#D5717F"/>
<path d="M73.979 63.5388C74.0317 62.7631 74.0608 61.9809 74.0608 61.1917C74.0619 58.5956 73.7681 56.0079 73.185 53.4781C72.129 53.3087 71.0682 53.1711 70.004 53.0654C70.1874 54.5066 70.2795 55.9579 70.2799 57.4107C70.2799 59.2136 69.8704 62.711 69.8704 62.711L58.6607 83.0892C53.9548 87.2289 48.1027 90.0961 41.6415 91.1517C35.247 89.9322 28.9959 88.8554 22.7479 88.8554C22.5425 88.8554 22.3408 88.8596 22.1379 88.8624C19.8313 87.9251 17.6689 86.7656 15.7402 85.4112C21.9238 91.5723 30.4524 95.3814 39.8711 95.3814C49.6039 95.3814 58.3867 91.3145 64.6131 84.7874L73.979 63.5388Z" fill="#CD5668"/>
<path d="M59.5594 59.2223C59.4152 59.1045 59.2491 59.0163 59.0708 58.9627C58.8925 58.909 58.7053 58.8911 58.5201 58.9098C58.3348 58.9285 58.155 58.9835 57.991 59.0717C57.827 59.1598 57.682 59.2795 57.5642 59.4237C47.5408 71.6984 33.3373 79.3349 17.5703 80.9266C15.7736 81.1068 13.9697 81.2066 12.1641 81.2255C12.862 82.1882 13.6095 83.114 14.4036 83.9991C15.5561 83.9468 16.7071 83.863 17.8551 83.7479C34.3757 82.0801 49.2581 74.0785 59.7607 61.2171C59.9985 60.9259 60.1109 60.5521 60.0731 60.178C60.0354 59.8039 59.8506 59.4602 59.5594 59.2223Z" fill="#CD5668"/>
<path d="M65.416 64.0053C65.2718 63.8875 65.1058 63.7993 64.9275 63.7457C64.7492 63.692 64.562 63.674 64.3767 63.6927C64.1915 63.7114 64.0117 63.7665 63.8477 63.8546C63.6837 63.9428 63.5386 64.0625 63.4208 64.2067C52.2875 77.8404 36.5789 86.3938 19.1182 88.3608C20.2498 89.2268 21.4344 90.0213 22.6651 90.7396C30.2075 89.5364 37.4375 87.1304 44.206 83.5561C52.4602 79.1973 59.6641 73.2905 65.6174 66.0001C65.7352 65.8559 65.8234 65.6899 65.877 65.5117C65.9306 65.3334 65.9486 65.1463 65.9299 64.961C65.9112 64.7758 65.8562 64.596 65.768 64.4321C65.6798 64.2681 65.5602 64.1231 65.416 64.0053ZM34.5847 69.8788L30.7552 59.4583L22.2909 74.0009C26.5415 73.1333 30.6701 71.7489 34.5847 69.8788Z" fill="#CD5668"/>
<path d="M70.0035 53.0636C70.0035 45.3389 66.4783 40.0631 62.0815 35.1999C60.0208 33.4369 57.7581 31.9248 55.3408 30.6956C35.8774 33.1406 18.0863 43.0991 5.80914 58.2399C5.52951 61.4623 5.70689 64.708 6.33602 67.8807L7.32527 71.6904C7.68818 72.815 8.10944 73.92 8.58733 75.0009C9.33358 75.0427 10.0802 75.0687 10.8268 75.0792L14.1553 75.0219C16.889 74.8894 19.6086 74.5475 22.29 73.9994C33.2545 59.4515 51.2678 51.1927 70.0035 53.0636Z" fill="#DC8995"/>
<path d="M62.0811 35.2007C66.3041 40.1381 69.144 46.2928 70.0035 53.0657C71.0677 53.1713 72.1285 53.309 73.1844 53.4784C72.6692 51.2448 71.9291 49.0692 70.9753 46.9849L69.4237 43.9937C68.4133 42.2613 67.2527 40.6209 65.9554 39.0915L63.2679 36.2644C62.8806 35.9007 62.4849 35.546 62.0811 35.2007Z" fill="#D5717F"/>
<path d="M32.5573 52.8381C23.4003 58.3896 15.9948 66.0287 10.8271 75.0778C11.9375 75.0934 13.0473 75.0741 14.1555 75.0205C19.0346 67.0251 25.7878 60.2582 34.0273 55.2628C44.564 48.8745 56.5445 45.9777 68.589 46.7772V44.8868L67.49 43.8762C55.3033 43.32 43.2241 46.3712 32.5573 52.8381Z" fill="#D5717F"/>
<path d="M68.59 46.7753C69.3852 46.828 70.1807 46.8996 70.9761 46.9848C70.5085 45.9628 69.9906 44.9646 69.4243 43.9938C68.7806 43.9431 68.1362 43.9026 67.4912 43.8721C67.9015 44.8226 68.2681 45.7914 68.59 46.7753Z" fill="#CD5668"/>
<path d="M53.7202 37.1355C44.8197 38.5697 36.3807 41.6773 28.6374 46.3717C20.894 51.0664 14.236 57.1117 8.84842 64.3401C7.97411 65.5131 7.14423 66.7119 6.34961 67.9307C6.6033 69.2016 6.92959 70.4569 7.32686 71.6904C12.8544 62.4058 20.6058 54.5574 30.1075 48.7969C40.7851 42.3234 52.7778 39.0315 64.9554 39.0849V38.1397C64.9554 38.1397 62.9836 36.2734 62.9611 36.2739C59.865 36.3544 56.7778 36.6422 53.7202 37.1355Z" fill="#D5717F"/>
<path d="M63.2671 36.2654C63.1651 36.2676 63.0629 36.271 62.9609 36.2736C63.6723 37.1764 64.3379 38.1144 64.9552 39.0841C65.2884 39.0856 65.6216 39.0854 65.9551 39.0918C65.1132 38.0997 64.2157 37.156 63.2671 36.2654Z" fill="#CD5668"/>
<path d="M32.0203 27.9094C30.0173 28.3801 28.0613 29.032 26.1763 29.857L23.608 31.1121C22.1815 31.885 20.8119 32.7585 19.5094 33.7259L17.1962 35.6046C15.4951 37.1131 13.9479 38.7866 12.5771 40.6005C21.0518 60.6072 37.8662 76.2225 58.6603 83.0896C66.8621 79.915 69.87 71.1674 69.87 62.7113C52.0686 58.3862 37.7711 45.1065 32.0203 27.9094Z" fill="#E4A4AD"/>
<path d="M69.8698 62.7109C68.6127 70.7877 64.528 77.9275 58.6602 83.0892C60.6202 83.7365 62.606 84.303 64.6125 84.7872C66.1822 83.1419 67.5845 81.3447 68.7987 79.4221L70.287 76.8179C71.0288 75.3768 71.6664 73.8845 72.195 72.3524L73.0133 69.6113C73.5169 67.6203 73.8399 65.588 73.9782 63.5389C72.5983 63.3173 71.2278 63.041 69.8698 62.7109Z" fill="#DC8995"/>
<path d="M38.5124 54.9885C46.5936 63.0698 56.5083 68.6517 67.3182 71.3466C68.0776 71.3466 68.3757 70.0658 68.3757 68.682C57.917 66.1455 48.3211 60.787 40.5175 52.9832C33.9068 46.3725 29.05 38.4758 26.177 29.8579C25.3036 30.2399 24.4466 30.6584 23.6084 31.1123C26.633 40.0037 31.6765 48.1527 38.5124 54.9885Z" fill="#DC8995"/>
<path d="M35.1705 58.3302C28.0944 51.2541 22.8003 42.8716 19.5105 33.7268C18.7125 34.3192 17.9407 34.946 17.1973 35.6054C17.5222 36.4677 17.8642 37.3236 18.2231 38.1724C21.7351 46.4755 26.7624 53.9322 33.1653 60.3353C39.5685 66.7382 47.0251 71.7657 55.328 75.2776C57.9292 76.378 60.5951 77.3188 63.3108 78.0946C64.3895 78.0946 65.0205 76.8132 65.0205 75.6316C53.8346 72.6299 43.5795 66.7394 35.1705 58.3302Z" fill="#DC8995"/>
<path d="M72.1947 72.3523C72.5057 71.4504 72.7786 70.5358 73.0127 69.611C71.4552 69.3634 69.9081 69.0535 68.3753 68.6821C68.0605 69.5848 67.7077 70.4738 67.3178 71.3467C68.9293 71.7471 70.5562 72.0826 72.1947 72.3523ZM65.0202 75.6318C64.4865 76.4774 63.9161 77.2991 63.3105 78.0948C65.1205 78.6118 66.9509 79.0543 68.7972 79.4214C69.3299 78.5776 69.8265 77.7088 70.2854 76.8172C68.515 76.4935 66.7585 76.0981 65.0202 75.6318Z" fill="#D5717F"/>
<path d="M74.4059 3.47969C74.6348 3.03944 74.446 2.00912 73.9045 1.20475C73.6887 1.04897 73.4649 0.90446 73.2342 0.771812C71.5251 -0.214813 69.8162 -0.454438 68.8296 1.25444C67.3609 3.79806 67.18 6.436 67.2951 8.23431C69.3936 8.23431 72.9469 6.28619 74.4059 3.47969Z" fill="#F7F9FA"/>
<path d="M73.9043 1.20435C73.8975 1.6041 73.7976 2.02728 73.5818 2.47428C71.4816 6.82316 67.6476 8.12235 67.2949 8.2341C67.3815 9.5886 67.6362 10.4674 67.6362 10.4674C67.6362 10.4674 72.4435 9.28691 75.0184 4.82741C75.868 3.35572 75.1979 2.14297 73.9043 1.20435Z" fill="#DCE6EB"/>
<path d="M92.9621 25.2714C93.3804 25.0046 93.7322 24.018 93.6654 23.0507C93.5565 22.8079 93.435 22.5709 93.3015 22.3406C92.3149 20.6316 90.9548 19.5698 89.2457 20.5564C86.7021 22.0251 85.2263 24.219 84.4268 25.8339C86.244 26.883 90.2953 26.9724 92.9621 25.2714Z" fill="#F7F9FA"/>
<path d="M93.6652 23.0505C93.4595 23.3935 93.1614 23.71 92.751 23.9892C88.7576 26.7053 84.7878 25.9135 84.4265 25.8338C83.8245 27.0501 83.6055 27.9385 83.6055 27.9385C83.6055 27.9385 88.359 29.32 92.8187 26.7452C94.2902 25.8953 94.3162 24.51 93.6652 23.0505Z" fill="#DCE6EB"/>
<path d="M54.3786 34.8457C54.1298 34.8455 53.8854 34.7798 53.67 34.6553C53.4546 34.5307 53.2758 34.3517 53.1515 34.1362C53.0272 33.9206 52.9618 33.6762 52.9619 33.4274C52.962 33.1786 53.0275 32.9342 53.152 32.7187L67.293 8.22559L69.7487 9.64346L55.6079 34.1364C55.4834 34.3522 55.3042 34.5314 55.0884 34.656C54.8726 34.7805 54.6278 34.8459 54.3786 34.8457ZM62.1012 41.7793C61.7888 41.7798 61.485 41.6772 61.2369 41.4873C60.9889 41.2974 60.8105 41.0309 60.7295 40.7292C60.6486 40.4275 60.6695 40.1075 60.7892 39.8189C60.9088 39.5303 61.1204 39.2894 61.3911 39.1335L84.4268 25.8337L85.8447 28.2894L62.809 41.5892C62.5939 41.7137 62.3497 41.7793 62.1012 41.7793Z" fill="#B9C3CD"/>
<path d="M73.7315 76.1638C73.3448 77.0369 72.9246 77.8947 72.4717 78.7354C75.3978 79.707 77.7567 80.9524 79.3707 82.3929C81.0305 83.8742 81.8077 85.4552 81.6181 86.9651C81.2437 89.9507 76.7459 93.1641 67.7564 93.1641C59.5722 93.1641 51.7666 91.6586 44.218 90.2027C36.8452 88.7807 29.8812 87.4376 22.7478 87.4376C11.9521 87.4376 5.41736 91.2086 2.4828 93.4564C2.19003 93.6871 1.99987 94.0237 1.95343 94.3936C1.907 94.7634 2.00804 95.1366 2.23469 95.4325C2.46134 95.7284 2.79537 95.9232 3.16452 95.9747C3.53367 96.0262 3.90826 95.9303 4.20723 95.7077C8.71567 92.2541 15.4734 90.2734 22.7476 90.2734C29.6101 90.2734 36.4449 91.5917 43.6809 92.9873C51.3605 94.4683 59.3011 96 67.7564 96C72.407 96 76.4287 95.1758 79.3867 93.6165C82.3248 92.0678 84.1166 89.8311 84.4317 87.3184C84.8847 83.7081 82.2189 79.0731 73.7315 76.1638Z" fill="#E4A4AD"/>
</g>
<defs>
<clipPath id="clip0_13_4">
<rect width="96" height="96" fill="white"/>
</clipPath>
</defs>
</svg>
