<svg width="96" height="96" viewBox="0 0 96 96" fill="none" xmlns="http://www.w3.org/2000/svg">
<g clip-path="url(#clip0_13_29)">
<path d="M66.1167 74.7863C67.4461 80.2684 69.8367 87.5575 73.1457 87.5575C75.7261 87.5575 77.4347 82.4429 78.5093 77.1906C72.2822 78.0119 67.1472 75.3649 66.1167 74.7863ZM34.8209 72.3333C34.8209 72.3333 28.6152 75.8476 21.6953 75.112C23.0401 80.5525 25.4014 87.5575 28.6446 87.5575C32.0335 87.5575 33.9194 78.7369 34.8394 72.3685C34.8332 72.3568 34.8269 72.3451 34.8209 72.3333Z" fill="#FFCB9D"/>
<path d="M10.1138 39.3627C10.1138 39.3627 3.11777 26.8096 10.1138 17.0911C16.8083 7.79164 28.4794 11.2135 28.4794 11.2135C28.4794 11.2135 32.6526 1.84226 41.9038 0.392702C52.0142 -1.19224 57.292 6.93533 57.292 6.93533C57.292 6.93533 68.1649 1.58426 76.1425 7.9197C84.079 14.2216 81.96 22.571 81.96 22.571C81.96 22.571 92.8556 23.0127 95.4585 33.1085C97.894 42.556 91.3234 48.7581 91.3234 48.7581C91.3234 48.7581 99.5828 64.1294 87.2299 73.5265C76.8887 81.3927 65.9273 74.677 65.9273 74.677C65.9273 74.677 60.5104 82.3244 47.5106 80.7276C38.485 79.6188 34.8206 72.3333 34.8206 72.3333C34.8206 72.3333 21.6685 79.7821 12.3083 70.7226C1.80452 60.5585 10.1136 39.3629 10.1136 39.3629L10.1138 39.3627Z" fill="#FFE9C8"/>
<path d="M34.8394 72.3685L34.8203 72.3333C34.8203 72.3333 28.6152 75.8476 21.6953 75.112C22.1172 76.8201 22.6394 78.6812 23.2576 80.4317C27.8974 80.5232 32.0056 78.9031 33.8256 78.055C34.2475 76.1324 34.5816 74.1541 34.8394 72.3685ZM66.1167 74.7863C66.5869 76.7251 67.1905 78.8877 67.9191 80.8756C69.9136 81.7118 73.2374 82.7498 77.1016 82.5432C77.659 80.9275 78.1247 79.0688 78.5093 77.1908C72.2822 78.0117 67.1472 75.3649 66.1167 74.7863Z" fill="#FFBA7E"/>
<path d="M81.96 17.3481L81.9834 17.3496C81.9797 17.3314 81.9761 17.3123 81.9731 17.2939C81.9692 17.3122 81.9648 17.3301 81.96 17.3481ZM87.2291 68.3035C76.8879 76.1704 65.9265 69.4542 65.9265 69.4542C65.9265 69.4542 60.5096 77.1014 47.5106 75.5048C38.4842 74.3967 34.8199 67.1104 34.8199 67.1104C34.8199 67.1104 21.6686 74.5591 12.3082 65.5006C8.87831 62.1813 7.45519 57.6856 7.09256 53.1359C6.65456 59.2669 7.5555 66.1246 12.3082 70.7234C21.6684 79.7821 34.8199 72.3333 34.8199 72.3333C34.8199 72.3333 38.4842 79.6195 47.5106 80.7276C60.5096 82.3242 65.9265 74.677 65.9265 74.677C65.9265 74.677 76.8879 81.3933 87.2291 73.5265C93.5887 68.6896 94.4852 62.2698 93.8582 57.178C93.3433 61.0086 91.5452 65.0208 87.2291 68.3035Z" fill="#FFDCA7"/>
<path d="M34.7602 38.1628C33.0183 29.7195 23.609 25.3579 15.9193 29.2558C8.74178 32.8945 -0.621029 38.91 0.0324082 45.2936C0.830783 53.0933 12.4404 56.3833 22.6584 54.9821C30.6242 53.8894 36.2529 46.4415 34.8313 38.5275C34.8093 38.4056 34.7857 38.284 34.7602 38.1628Z" fill="#FFCB9D"/>
<path d="M34.8004 38.3716C33.6767 44.174 28.881 48.9053 22.6583 49.7585C13.3667 51.0338 2.92538 48.4278 0.508318 42.08C0.100317 43.1337 -0.07837 44.2083 0.0320675 45.2937C0.83063 53.0933 12.4403 56.3834 22.6583 54.9822C30.624 53.8895 36.2528 46.4416 34.8311 38.5276C34.8216 38.4756 34.8105 38.4237 34.8004 38.3716Z" fill="#FFBA7E"/>
<path d="M20.7087 35.718C19.0625 35.718 17.7725 37.3193 17.7725 39.3626C17.7725 41.406 19.0625 43.0071 20.7087 43.0071C22.355 43.0071 23.6444 41.406 23.6444 39.3626C23.6444 37.3191 22.3544 35.718 20.7087 35.718Z" fill="#433F43"/>
<path d="M29.1106 23.3944C29.1106 23.3944 28.1804 17.2062 34.1124 17.5233C39.905 17.833 39.8566 24.9991 35.7427 26.3108L29.1106 23.3944Z" fill="#FFCB9D"/>
</g>
<defs>
<clipPath id="clip0_13_29">
<rect width="96" height="96" fill="white"/>
</clipPath>
</defs>
</svg>
